<svg xmlns="http://www.w3.org/2000/svg" viewBox="0 0 32 32" width="32" height="32">
  <!-- Background circle with gradient -->
  <defs>
    <linearGradient id="bgGradient" x1="0%" y1="0%" x2="100%" y2="100%">
      <stop offset="0%" style="stop-color:#f59e0b;stop-opacity:1" />
      <stop offset="100%" style="stop-color:#d97706;stop-opacity:1" />
    </linearGradient>
    <linearGradient id="mugGradient" x1="0%" y1="0%" x2="100%" y2="100%">
      <stop offset="0%" style="stop-color:#ffffff;stop-opacity:1" />
      <stop offset="100%" style="stop-color:#f3f4f6;stop-opacity:1" />
    </linearGradient>
  </defs>
  
  <!-- Background circle -->
  <circle cx="16" cy="16" r="15" fill="url(#bgGradient)" stroke="#b45309" stroke-width="1"/>
  
  <!-- Mug body -->
  <rect x="9" y="13" width="10" height="8" rx="1.5" fill="url(#mugGradient)" stroke="#d97706" stroke-width="0.8"/>
  
  <!-- Mug handle -->
  <path d="M19 14.5 Q20.5 14.5 20.5 16 Q20.5 17.5 19 17.5" fill="none" stroke="#d97706" stroke-width="1.2"/>
  
  <!-- Coffee liquid -->
  <rect x="10" y="14" width="8" height="1.5" fill="#8b5cf6" opacity="0.7"/>
  
  <!-- Steam lines -->
  <path d="M12 9 Q12.5 7 13 9 Q13.5 7 14 9" fill="none" stroke="#8b5cf6" stroke-width="1" opacity="0.6"/>
  <path d="M15 9 Q15.5 7 16 9 Q16.5 7 17 9" fill="none" stroke="#8b5cf6" stroke-width="1" opacity="0.6"/>
  <path d="M18 9 Q18.5 7 19 9" fill="none" stroke="#8b5cf6" stroke-width="1" opacity="0.6"/>
  
  <!-- Coffee beans decoration -->
  <ellipse cx="11" cy="20" rx="1" ry="0.5" fill="#6b21a8" opacity="0.5" transform="rotate(45 11 20)"/>
  <ellipse cx="21" cy="20" rx="1" ry="0.5" fill="#6b21a8" opacity="0.5" transform="rotate(-45 21 20)"/>
</svg>
